<mxfile host="app.diagrams.net" modified="2023-08-08T09:19:24.469Z" agent="Mozilla/5.0 (Macintosh; Intel Mac OS X 10_15_7) AppleWebKit/537.36 (KHTML, like Gecko) Chrome/115.0.0.0 Safari/537.36" etag="VZsDqDUZqywVUssV9vmb" version="21.6.6" type="device">
  <diagram id="47p9SiqCg1THuZsXqKx0" name="Page-1">
    <mxGraphModel dx="1306" dy="720" grid="1" gridSize="10" guides="1" tooltips="1" connect="1" arrows="1" fold="1" page="1" pageScale="1" pageWidth="850" pageHeight="1100" background="none" math="1" shadow="0">
      <root>
        <mxCell id="0" />
        <mxCell id="1" parent="0" />
        <mxCell id="tAkwu-i30kwF6sE4yZoW-1" value="&lt;font face=&quot;Times New Roman&quot; style=&quot;font-size: 17px;&quot;&gt;GT Factors&lt;/font&gt;" style="text;html=1;strokeColor=none;fillColor=none;align=center;verticalAlign=middle;whiteSpace=wrap;rounded=0;" vertex="1" parent="1">
          <mxGeometry x="175" y="520" width="60" height="30" as="geometry" />
        </mxCell>
        <mxCell id="tAkwu-i30kwF6sE4yZoW-2" value="&lt;font face=&quot;Times New Roman&quot; style=&quot;font-size: 17px;&quot;&gt;Latent Codes&lt;/font&gt;" style="text;html=1;strokeColor=none;fillColor=none;align=center;verticalAlign=middle;whiteSpace=wrap;rounded=0;" vertex="1" parent="1">
          <mxGeometry x="365.00000000000006" y="520" width="65.93" height="30" as="geometry" />
        </mxCell>
        <mxCell id="tAkwu-i30kwF6sE4yZoW-23" style="rounded=0;orthogonalLoop=1;jettySize=auto;html=1;entryX=0;entryY=0.25;entryDx=0;entryDy=0;endArrow=classicThin;endFill=1;strokeColor=#B3B3B3;" edge="1" parent="1" source="tAkwu-i30kwF6sE4yZoW-3" target="tAkwu-i30kwF6sE4yZoW-14">
          <mxGeometry relative="1" as="geometry" />
        </mxCell>
        <mxCell id="tAkwu-i30kwF6sE4yZoW-3" value="" style="ellipse;whiteSpace=wrap;html=1;aspect=fixed;fillColor=#ffe6cc;strokeColor=#d79b00;" vertex="1" parent="1">
          <mxGeometry x="195" y="560" width="20" height="20" as="geometry" />
        </mxCell>
        <mxCell id="tAkwu-i30kwF6sE4yZoW-24" style="rounded=0;orthogonalLoop=1;jettySize=auto;html=1;entryX=0;entryY=0.5;entryDx=0;entryDy=0;endArrow=classicThin;endFill=1;strokeColor=#B3B3B3;" edge="1" parent="1" source="tAkwu-i30kwF6sE4yZoW-4" target="tAkwu-i30kwF6sE4yZoW-14">
          <mxGeometry relative="1" as="geometry" />
        </mxCell>
        <mxCell id="tAkwu-i30kwF6sE4yZoW-4" value="" style="ellipse;whiteSpace=wrap;html=1;aspect=fixed;fillColor=#dae8fc;strokeColor=#6c8ebf;" vertex="1" parent="1">
          <mxGeometry x="195" y="600" width="20" height="20" as="geometry" />
        </mxCell>
        <mxCell id="tAkwu-i30kwF6sE4yZoW-25" style="rounded=0;orthogonalLoop=1;jettySize=auto;html=1;entryX=0;entryY=0.5;entryDx=0;entryDy=0;endArrow=classicThin;endFill=1;strokeColor=#B3B3B3;" edge="1" parent="1" source="tAkwu-i30kwF6sE4yZoW-5" target="tAkwu-i30kwF6sE4yZoW-14">
          <mxGeometry relative="1" as="geometry" />
        </mxCell>
        <mxCell id="tAkwu-i30kwF6sE4yZoW-5" value="" style="ellipse;whiteSpace=wrap;html=1;aspect=fixed;fillColor=#dae8fc;strokeColor=#6c8ebf;" vertex="1" parent="1">
          <mxGeometry x="195" y="640" width="20" height="20" as="geometry" />
        </mxCell>
        <mxCell id="tAkwu-i30kwF6sE4yZoW-22" style="rounded=0;orthogonalLoop=1;jettySize=auto;html=1;entryX=0;entryY=0.5;entryDx=0;entryDy=0;endArrow=classicThin;endFill=1;strokeColor=#B3B3B3;" edge="1" parent="1" source="tAkwu-i30kwF6sE4yZoW-7" target="tAkwu-i30kwF6sE4yZoW-14">
          <mxGeometry relative="1" as="geometry" />
        </mxCell>
        <mxCell id="tAkwu-i30kwF6sE4yZoW-7" value="" style="ellipse;whiteSpace=wrap;html=1;aspect=fixed;fillColor=#dae8fc;strokeColor=#6c8ebf;" vertex="1" parent="1">
          <mxGeometry x="195" y="680" width="20" height="20" as="geometry" />
        </mxCell>
        <mxCell id="tAkwu-i30kwF6sE4yZoW-9" value="" style="ellipse;whiteSpace=wrap;html=1;aspect=fixed;fillColor=#ffe6cc;strokeColor=#d79b00;" vertex="1" parent="1">
          <mxGeometry x="387.96000000000004" y="560" width="20" height="20" as="geometry" />
        </mxCell>
        <mxCell id="tAkwu-i30kwF6sE4yZoW-10" value="" style="ellipse;whiteSpace=wrap;html=1;aspect=fixed;fillColor=#ffe6cc;strokeColor=#d79b00;" vertex="1" parent="1">
          <mxGeometry x="387.96000000000004" y="600" width="20" height="20" as="geometry" />
        </mxCell>
        <mxCell id="tAkwu-i30kwF6sE4yZoW-11" value="" style="ellipse;whiteSpace=wrap;html=1;aspect=fixed;fillColor=#ffe6cc;strokeColor=#d79b00;" vertex="1" parent="1">
          <mxGeometry x="387.96000000000004" y="640" width="20" height="20" as="geometry" />
        </mxCell>
        <mxCell id="tAkwu-i30kwF6sE4yZoW-12" value="" style="ellipse;whiteSpace=wrap;html=1;aspect=fixed;fillColor=#dae8fc;strokeColor=#6c8ebf;" vertex="1" parent="1">
          <mxGeometry x="387.96000000000004" y="680" width="20" height="20" as="geometry" />
        </mxCell>
        <mxCell id="tAkwu-i30kwF6sE4yZoW-81" style="rounded=0;orthogonalLoop=1;jettySize=auto;html=1;endArrow=classicThin;endFill=1;strokeColor=#B3B3B3;" edge="1" parent="1" source="tAkwu-i30kwF6sE4yZoW-14">
          <mxGeometry relative="1" as="geometry">
            <mxPoint x="310" y="650.01" as="targetPoint" />
          </mxGeometry>
        </mxCell>
        <mxCell id="tAkwu-i30kwF6sE4yZoW-14" value="" style="shape=image;verticalLabelPosition=bottom;labelBackgroundColor=default;verticalAlign=top;aspect=fixed;imageAspect=0;image=data:image/jpeg,/9j/4AAQSkZJRgABAQAAAQABAAD/4gHYSUNDX1BST0ZJTEUAAQEAAAHIAAAAAAQwAABtbnRyUkdCIFhZWiAH4AABAAEAAAAAAABhY3NwAAAAAAAAAAAAAAAAAAAAAAAAAAAAAAAAAAAAAQAA9tYAAQAAAADTLQAAAAAAAAAAAAAAAAAAAAAAAAAAAAAAAAAAAAAAAAAAAAAAAAAAAAAAAAAAAAAAAAAAAAlkZXNjAAAA8AAAACRyWFlaAAABFAAAABRnWFlaAAABKAAAABRiWFlaAAABPAAAABR3dHB0AAABUAAAABRyVFJDAAABZAAAAChnVFJDAAABZAAAAChiVFJDAAABZAAAAChjcHJ0AAABjAAAADxtbHVjAAAAAAAAAAEAAAAMZW5VUwAAAAgAAAAcAHMAUgBHAEJYWVogAAAAAAAAb6IAADj1AAADkFhZWiAAAAAAAABimQAAt4UAABjaWFlaIAAAAAAAACSgAAAPhAAAts9YWVogAAAAAAAA9tYAAQAAAADTLXBhcmEAAAAAAAQAAAACZmYAAPKnAAANWQAAE9AAAApbAAAAAAAAAABtbHVjAAAAAAAAAAEAAAAMZW5VUwAAACAAAAAcAEcAbwBvAGcAbABlACAASQBuAGMALgAgADIAMAAxADb/2wBDAAMCAgMCAgMDAwMEAwMEBQgFBQQEBQoHBwYIDAoMDAsKCwsNDhIQDQ4RDgsLEBYQERMUFRUVDA8XGBYUGBIUFRT/2wBDAQMEBAUEBQkFBQkUDQsNFBQUFBQUFBQUFBQUFBQUFBQUFBQUFBQUFBQUFBQUFBQUFBQUFBQUFBQUFBQUFBQUFBT/wAARCAFaAXsDASIAAhEBAxEB/8QAHQABAAMAAwEBAQAAAAAAAAAAAgABAwQHCAYFCf/EAD8QAAEDAQQGCQMDAwQCAgMAAAEAAgMRBBIyUQUGByGS4RMiMTNBQlJyoWGx0RRxgQgVI2KCkcEWNBdDY3Pw/8QAGwEBAAEFAQAAAAAAAAAAAAAAAAYBAgMEBwX/xAAoEQACAgICAgEEAwEBAQAAAAAAAQIDBBEFEiExEwYUMkEiUWFSFTP/2gAMAwEAAhEDEQA/AP6pojEVL4zVBwqUA0X4SpfGapzgQgGojfGal8ZoCDEUkA4VKu+M0BU3cye0prOZw6F+/wApSvjNAJEYipfGaoOFSgGi/CVL4zVOcCEA1Eb4zUvjNAQYikgHCpV3xmgKm7mT2lNZzOHQv3+UpXxmgEiMRUvjNUHCpQDRfhKl8ZqnOBCAaiN8ZqXxmgIMRSQDhUq74zQFTdzJ7Sms5nDoX7/KUr4zQCRGIqXxmqDhUoBovwlS+M1TnAhANRG+M1L4zQEGIpIBwqVd8ZoCpu5k9pTWczh0L9/lKV8ZoBIjEVL4zVBwqUA0X4SpfGapzgQgGojfGal8ZoCDEUkA4VKu+M0AkRiKSIxFAJF+EpIvwlAJRRRAEYikiMRSQAm7mT2lNCbuZPaU0BERiKSIxFAJF+EpIvwlAJRRRAEYikiMRSQAm7mT2lNCbuZPaU0BERiKSIxFAJF+EpIvwlAJRRRAEYikiMRSQAm7mT2lNCbuZPaU0BERiKSIxFAJF+EpIvwlAJRRRAEYikiMRSQAm7mT2lNCbuZPaU0BERiKSIxFAJF+EpIvwlAJRRRAEYikiMRSQApJ6m8PNUBJePWbw81oiMRQFUk9TeHmqcJLp6zeHmtEX4SgKpJ6m8PNSknqbw801EBmBJePWbw81dJPU3h5qxiKSAxmD+ifVzaXT5eadJPU3h5qTdzJ7SmgBST1N4eaoCS8es3h5rREYigKpJ6m8PNU4SXT1m8PNaIvwlAVST1N4ealJPU3h5pqIDMCS8es3h5q6SepvDzVjEUkBjMH9E+rm0uny806SepvDzUm7mT2lNACknqbw81QEl49ZvDzWiIxFAVST1N4eapwkunrN4ea0RfhKAqknqbw81KSepvDzTUQGYEl49ZvDzV0k9TeHmrGIpIDGYP6J9XNpdPl5p0k9TeHmpN3MntKaAFJPU3h5qgJLx6zeHmtERiKAqknqbw81ThJdPWbw81oi/CUBVJPU3h5qUk9TeHmmogMwJLx6zeHmrpJ6m8PNWMRSQGMwf0T6ubS6fLzTpJ6m8PNSbuZPaU0AKSepvDzVASXj1m8PNaIjEUBVJPU3h5qnCS6es3h5rRF+EoCqSepvDzUpJ6m8PNNRAZgSXj1m8PNXST1N4easYikgDfGaoOFSmiMRQEvjNU5wITRfhKAl8ZqXxmkogAHCpV3xmoMRSQGczh0L9/lKV8Zqpu5k9pTQBvjNUHCpTRGIoCXxmqc4EJovwlAS+M1L4zSUQADhUq74zUGIpIDOZw6F+/ylK+M1U3cye0poA3xmqDhUpojEUBL4zVOcCEiaKn4SgJfGal8ZpKIABwqVd8ZqDEUkBnM4dC/f5SlfGaqbuZPaU0Ab4zVBwqU0RiKAl8ZqnOBCaL8JQEvjNS+M0lEAA4VKu+M1BiKSAzmcOhfv8pSvjNVN3MntKaAN8Zqg4VKaIxFAS+M1TnAhNF+EoCXxmpfGaSiAAcKlXfGagxFJAREYipQ5/CoA1O9ANF+EqUOfwqcDTtQDURoc/hShz+EBBiKSABqd6uhz+EBU3cye0prOYHoX7/KfBKhz+EAkRiKlDn8KgDU70A0X4SpQ5/CpwNO1ANRGhz+FKHP4QEGIpIAGp3q6HP4QFTdzJ7Smspgehfv8p8FJJRE0uc6gH0T2BveGCpIH7r8LTOnYbGHUlb2Zr8zXPWiCw2Elk3WFV5z1x2lWl8kzY5K0OakXG8VZmPZ4ufyNeHFtnbmndpf6N9GTVFfAr9XQOvrLc0XpgK5leRLbrnbLQaucSf3T0ftBt9knYGk3K796nEvptSp0vZE6vqOM5/4e9dH6SitMQIlaT+654IIqF5j1E2nOlkjZPNQLvnRGttgtdmiItILiN+5QDP4y3DnrWybY2ZXkR2mfRDEUlxIbdDOTckr/C5IqfN8LxWmvZv72VN3MntKazmB6F+/ynwSoc/hUKiRGIqUOfwqANTvQDRfhKlDn8KnA07UA1EaHP4Uoc/hAQYikgAaneroc/hAVN3MntKazmB6F+/ynwSoc/hAJEYipQ5/CoA1O9ANF+EqUOfwqcDTtQDURoc/hShz+EBBiKSABqd6uhz+EAkRiKl8Zqg4VKAaL8JUvjNU5wIQDURvjNS+M0BBiKSAcKlWXgeKAqbuZPaU1x7ROBDJv8p+yo2xo8Vck2U2clEYishaWnxSbKCSVRpoqaovwlS+M1TnAhUA1Eb4zUvjNAQYihLaGxdqxtltbZAXEhdda6bS4dCh957RTNbmPjWZEusEa12RCiPabPq9Ma6WPR0MokIHVPj9F8np/avo9tmkY1wDvcuhddtpH91ZMY5iKg9hXWulNNzzyE/qH0/ddBwfpmM0pWeyEZv1F8bcavJ2hr1tBdbhI2KXca+K6dtGk5pp5S99alYyW57yQ6Qu/crhzSgVNVNaMGOLpJEGzMy3LnuRyZJ6k0Kze/qkg0X55trAd5V/3BpFKr0ndFLSNNRcV4P1bHpi2WS0Axy3aLsfU3aDbLNI3prRVoK6tbK1wqtI7SWHqvLf2WtLFjkxakj0sfPtpfg9eas7WbHEW9NIDSnmXYuitpGj7ddukGv+peBotIWippO8fyvu9VNc5NGuj6S0ONMyofnfTNbTnH2SvD+opdlGzwj3LDb2W2yyPZ2XT9lzO1dEambYoHWf9OXsLnNpv/Zd06L0k3SFjZMCKOyXNszBtw5amvBPcfJhkR3FnPRGIqXxmqDhUrzTbGi/CVL4zVOcCEA1Eb4zUvjNAQYikgHCpV3xmgKm7mT2lNZzOHQv3+UpXxmgEiMRUvjNUHCpQDRfhKl8ZqnOBCAaiN8ZqXxmgIMRSQDhUq74zQCRGIpIjEUAkX4Ski/CUAlFEXG60k9iAzllEQcSaL5TWfW4aJjLhINw8Chr9rC3ReipJGSC8PAfsvKmtm1S0221TxXnEAkdqk3FcXLLfZ+jwOR5GOItfs7a09twdZYZaTHcD4/Rfiv/AKgHAj/O75XQGktNTWyGWoO9p+y45kld5CuiV8LhRj/KJC7Ocub/AIs9GWX+oB75A3p3f8lfUaJ2yG2Pp0x308V5MZanwuDqGq/RsOtU1lebtfDsKtt4LFmv4RL6+fsj+TPbeg9dRpC7WUGv1X1kNuZMyt9v/K8OaP2p2uw0uh+7Ir7nV7bJapbge5wqR2lRbL+mrVuVfo9/F5+mx9WetWuDh2gq3EAdq+D1M1zs+kLJeltDWup4lfsae1is9n0eZGTtJGSh08SyFnxtEojfCUO6Z+NtL1jGhbG54fTq13FeU9d9dDrCZQXl1ajevvtpeu50kJYr9Q0U7V0RbJzeP1K6jwHF/FFSmvJzHn+RlO34oPwce1z3IpKekrKS0G7RZWl16GT6NO/+EiF0mFaiiHqK9sxdIa1I3LJzukLguT0Qcris/WcPurpxjJaZnco6PzZLKCdwosjZ7u+lV+zLAAuPLBQFaEcaLe9CE0zKN5FAthX+EmQb+xchsIA3hbsYxgtIpJxXoyhddJWzXmtVRi3uVAUARxUjB4b2fQ6vaU/SW1r60oCvVuzzXr9RZYbP0nZ9V43bL0Ebng7w0/Zdn7K9bJG6ZbG8lrRTeSoZznGxyKnPXol3CclKqz45P2e14JOlhY7MVSGIr8fQeloLXY4A2VrjdHYv2BiK4dZBwk0zrEZKS2hIvwlJF+ErGXCUUUQBGIpIjEUkAJu5k9pTQm7mT2lNAREYikiMRQCRfhKSL8JQCUUUQBGIpIjEUkAKSepvDzVASXj1m8PNaIjEUBVJPU3h5qnCS6es3h5rRF+EoCqSepvDzXE0pLJBYZX327h6ea5y/G1rl6PQVqdWlGq+C3NIsm9RbPPu1rW9/wCmngbK2or4H8rzHY4rfpnSk4jc11X+k/lfcbT9OyS6ctMPSGmSexLRLbfpd19l+sniuoY2sSnvE5vfvMv6MrR2z3Sk0JvMaRdNaNOX7r6OPZlpIsPUb2eg/leodFap2SGzGtnbhy+i+jZq9YQ3/wBdgXl2/UclLSie7XwdfXyzxDpHZnphpNxjOA/lfO2jULTVmkc5zWgew/le+p9WLA9v/qsP7L5jWHUeyWmJwjszQcwFtUfU7k1GUTWv+noSW0zw7Nom22TvCwU/0H8rJlutNloWvZu/0n8r0PrXsitFqv8ARMIrkF1fprZRb7CHVL930Uto5DHvj5n5IjkcRdjy3DZxdBbQNJ2FzGiZgb7T+V9nbtotstOibvTtLj9D+V0/pKwzaKmDHONa+KkdrmLKF5ot54NNzU9IuXI3Y8Okj9C36atlstU1+RpBPp5r860CRxNHs4T+UwCXOPaSiSvcqhGPpEassds+7OFNHJ0L6ubS6fL9P3T6OT1t4T+VtPToJPafsk40HYtrY2ce5J6m8J/KUYkaT1m8J/KZzWdSCd6r7HsbjJ62n/bzQex5FbzeHmr3lWQbhTWivoYa+mJv8N5qwH+tvDzRoR+60VrRjYCJKmj2cPNBzJRvvsp7T+VoMbv4SVPQ9HGk6To3guaRdO4N5r97Qlrl0baBIyRodndP5X4kwuxye0/ZcgzG42hWC+CnHRdGbhNTj+j0rse1ztVunZHLM0gOp2H8r0XDM6Um69p/2814b2Ya0DQNrDpXbr1d5XrDUDXKHWK6YyDUeBXFvqHAlC12xjpHXuEz1kUqMn5PuqSepvDzVOEl09ZvDzTBqqfhKg5KyqSepvDzUpJ6m8PNNRAZgSXj1m8PNXST1N4easYikgMZg/on1c2l0+XmnST1N4eak3cye0poAUk9TeHmqAkvHrN4ea0RGIoCqSepvDzVOEl09ZvDzWiL8JQFUk9TeHmpST1N4eaaiAzAkvHrN4eauknqbw81YxFJAG+M1QcKlNEYigJfGapzgQmi/CUBL4zX4Oujx/45bN/lX0C/H1rh6XQVqb21aslf5ox2fgz+ee0eSmtdq3n/APiV2B/TvM06WA/15L8HapoEw6btU9z+aJbBtKizabcC67STxXRZ7+1cf8IBTHrk7/095xlv6Y09OX0XLvNXz2htKC2Wc0eD1M/ovoq1XOrIuMtM6BBqS2irzUeqSagU/ZaIjEVjLzGSCJ/axp/2r43WvVlluhmIiadxO5q+6X4enrY2CzzAuA6p7Vt49k4TTiYLYxcfJ4n2qaHFj0uBSnWPgviGgRilV2NtitnSaa3GvWPYuvjvK7zgWOePDZxbmZw+ZxiAOb4nLespHgeK1oWkj9lm9oP0XvRekeDF+TKV9YJB29U/ZbVCwnFIZN5wlO+WlZFJMyexGg7D8IGlUxIEb/XdT6LImVKqB2KF1RRXeoa1oqkd1Sa1QeTUUzS3ZrPpd+4qzLuVrZa0yxSpKpzwFmJTeKl699VY5JDyGZ16J4r5T9ls1gI3IvbWGT2lcxg6oWL5N+jHKRhvpucWn6LvvYPrH/amwh8hO4Dearo1rL5X72gtZn6EkaGk7iBuUf5TF+5pdZ63FZ7xMhNvwe79C6WbpKK/UHd4L9FzgQut9j+nDpTRl5zt9zxXZBNWLheXT8F0of0dwx7VdUpr9l3xmpfGaSi0zZAHCpV3xmoMRSQGczh0L9/lKV8Zqpu5k9pSJA7TRAVfGaJeASuLbdIR2YGsjW/uV1zrPtCbo17w2Ybsit3HxLMh6gjWtvhUtyOzXWlrT21U6cPBAXm21bbZGW4RiR1F9pqbtEdpicNLyakL0ruIvoh2kjQr5Km2XWLO474zUvjNGJ9+NjswCtF4B7AA4VKu+M1BiKSAiIxFShz+FQBqd6AaL8JUoc/hU4GnagGuFpeLptHyszC5dDn8ITML4yK9v0V0XpplGtrR5c2x6rBtnnmDKk18F5w1S0lJoTTc5HVAlK9w7WtCNn0FKWjfv3/wvD+sWh59H6TtLmm6L5PYuh8ZP7mvz+iD8jD7efZHrzY/reNJQN6STtbn9F3pBOyYVaarwzsd1tdouNoml7AvXepWnW6Vs95r61C8HlsNwm7EvB7XGZStrSb8n2KIxFU01GL4UANTvUYPfETRdQbU9ZjosTNv08F21M4tGL4Xln+ofSM0M0tx9Ot/2vb4mpWZCTPD5fI+3x3NHU2utu/uVvEhNd9V+GxgLFT5Xz0L3VKQqAN67bhVdYI4ZkWu61yZmWXiRks5I6fsuQ1tSd6ssOfwvV2Ye2j8y0NPRSe0qUNeyi5dpg/wyGvlP2WT4HA9tf4VTMp7M6LOnWK36J7RvNf4WRY6p3/CKTRcpBrRB+ErTojn8KGE07a/wqOxl/dGbXEncFoGup4rVsLiRv8AhbCA07VY3JlkrDiNZVx3Ldke4LVlmNTvotmw07D8J1b9sxSmcd8R6CTK6fsuTQgKTM/wyb/KfstCw07fhZEtGHsZsqEmMBnFcwrDSPH4SY03jvoQsN63EpKWvJ6V2QacZZLG2O/SoAXfGjLQLTY74NV4u1N1ndYrbZ4ukpVwC9c6jWo2vQbHl1a0XGefxPhl8n9nbuByVdRGG/SPplEaHP4Uoc/hQ0lZBiKSABqd6uhz+EAbQ4NgkJ9JX5Gn9NQ6Piq6QN3LXWLSDdHaOkke7ddP2XQW1jaI10EjLPNdcBTtXq4GHLKmkvR5mblxxq22/JntN2mvspl/SyXu3sK6T0rr9bbc914n/lfO6R1jtNuLumlvb8lnY9HT6RkAYak+NF1TEopw61HqmzluVyF+VY+u9HJs2kbTbLe0hpcf3XeOyaC3frGufGQ2o3r4zUjZlbrRbopnCsftXp3U/VGLR1kiNyjgBU0Ue5fOgo9Ikj4nBsclOR97Y6/poq7uqPsuQs2MIaADuAySoc/hc4b2zoK8IgxFJAA1O9XQ5/CoVEiMRUvjNUHCpQDRfhKl8ZqnOBCAao7wqvjNS+M0B89rhoz+5aNfHdqV5P2q6hO0aJpiwitSvZsoDwQur9rWrDdLWEtu1q3JSPiMx02Kt+meLyOKr62/2eHLJbn6PY+68tND2L0/sg2hMstmZG94JIAqV0Jr1qgNCRzkMLaA+CeqmnP0E8PWpQroeTj15tPX9EDx8mWBdqR780JpVukbL0gII+i/UaakrozZ5tCDrKyAy9tPFdx6N0g20wNffBvDNctzcOeNNprwdIxcmN8E0x6Tm6JpXkz+oa0X5pd/n/7Xp/WW3NgYesOxeRdu2khPNIQa9b/tetw1b+RSI99RS3itHWkL6tXIY6rR8r8yC0At7VyG2mlBVdpxv/mjjkovZzQesUr1P2XDFo6x3rVswd4rYMTixz0/Ty+0/ZIt3rOZ46CQeJYVteGauLN6Ddr9EOiBLgQtb4zRvbyhXZkYGnkoYBTsWt76q3GrSmivZlNYB4JXKKBwzSvDNC3YWDrFa0BWYeA45KdI3NC1sqenQybvKfstD2LGZ9YZN/lP2WpkFO1Ub0UKA35pNN1zlmJW5ovlaC6pWOXlaDW/BnYLQ9unLGQ8gdIvbGyzTLf/AB2NhIJ3Lw9HMIbXHLXA6q7X1U2zf2eBkHTEU8FCuY463Pj1rXon/wBOZ0caTU2e0I5L7A7NPtXnfRW37po2t6c/8r6CDbOHgf56/wArnlnB5db04nSYclRJeGdzXqOK4GkdLNsNnfIadXNdM6Q24izF/wDnI/lfFaxbe/1Vnkh6cm8stPBZUmnKPg1r+Xx6k/J9ltP2rwv0baLKx7Q4Nd2H6Ly5rPpqa2WmZxlc5pJ8VtrPrD/c5p5r9bzTvXzVrnDyd/apziYUMKvUfZzXkOSszLPfg4oa6Rw7aLvnZPs/fpZsc1wuAoV8Vs11BbrW6Ill6v0Xr/Zjqk3VyydHdDRdAXlcjnqivUH/ACJBwvHfI1ZNeD9jVPVqDR9gDHQNvCm8hfTNgZG3qtACbCGiijnAhc7sslZJyZ0WEFBaQ1Eb4zUvjNYi8gxFJAOFSrvjNAJEYikiMRQCRfhKSL8JQCUUUQBGIrhaU0a3SDLrqdi5oxFWRVXRk4vaKNJrTPO22HUBssFpuMvdU9g+i8+6Z0NJom0j/GW0OS966a0FZ9JQTdKK1afD6Lz/ALTdnr5JnOs8VQDkp/w3Kp6qsIVzHF/InOHs6e0BrZLoyZmIUXcOp21OSZwje8tAp2ldJaW1Yt9gtFejo0LhWfSlr0bI6m5wpuUqvx6MyOteSIYudfg2dJ70emNd9eWCzAtlBJaPFebNoGmDpV7iXVq5YaX1wttpZRx3Up2r5e1Wx9pHXVcbjI4tf+m7yfIfcw0aQmgC3FfArjRmrUw4qSVPUUiGNbOQwkF1Vs12S4TXG8Vux6zdvJhkjmvINnk9p+y2G5cMupBJv3Fp+y5IJr2q7ZrNGv8AKqlXFV/KoE3nJssHSngi/Cdyl4qnO6pV3YbGOxX/AMKt6lSnYoTzFRGvWKl5WuQKtHcSe0/ZXIQ1qxtDz0MmV0oTSdVY3IuS8ldKQ6tVjJaKucs7x3lZF4LirHPybCiMuvJRx0N5Zg18VoDRu9IS0zPGTr/E/YsukDZ6Edq53/lMkYpUr8EO3LOV1FbOuMvLMscq5eFI/am0+60OderVfnzvExqSvynWno3O3qfrur2rRmlD0W2Sus8tmmkwG2WQg77p+yz0RY36SmuNYXb6blhI59uZJHH1nXSu3Ni+o01pt4daouoXZKO5eUqk5NntcXhyumto7Q2BarusrYL8ZZ2dq9EWSziz1AX42rmrVn0O1nRNpQZL6AbnFcxzsn7i1yXo7FiY6x61ASL8JSRfhK843hKKKIAjEUkRiKSAFJPU3h5qgJLx6zeHmtERiKAqknqbw81ThJdPWbw81oi/CUBVJPU3h5qUk9TeHmmogMwJLx6zeHmrpJ6m8PNWMRSQGMzXmJ9XNIuny81wbfoaK1xvvsjcSPSfyv0Zu5k9pTV0ZOL2ijSa0zpzW/Z4LXHJ0UbGn6M5rpTTWyHSRtcrmGg//XzXsp8LHje0H+F+fadFRSl3+Jh/2hSLE5m3H8Hg5XEU5D7M8Ea0agW/Q7XGR43Cu9nNfDTxSw1vOb+13mvcm0rZ+NMxPDYhW75QvJe0rVN2rUjmlpbR1N/7qe4XKwyql2f8iFcrxn26bj6PlYekIPXZwn8rWknqbwn8rCyOqO1bl1GqU1PcUyFSXkIMl49ZvDzWrDJXE2vtP5WbTUlaM30zWTfksaNi94hkq9pF09jTl+65DXSU3Pbw81w3k9DJ7St7yy7NdxN+nlrjZwH8qCWS8aPYP9p/KwvU8VQk6xTZZ1OW2SQ+dnAfyrLpKY2cJ/K4wekX0aaFNlricq9J62cPNVel9bODmshJuUMqbLeoi+QONXN4T+UTK/1s4eayc8lxRv0VjZcoktD5OifVzaXT5eaMj5D52H/afys7Q/8Awye0/ZR7tyxtmRRM3ukNeuyntP5XHcJHOPXbw80ybxyCppq5wWKUjaUdEYJB528J/K3a6Sm97eE/lYHcQnf3ZKxT0UktnMbfPmZw81nOJabntp7eapktELTaaD6pZdpGFJ7PzbS2UvNHtB9vNcYCaR4YJG1P+k/lcqSW9IRXtX7mrmrjtJaRhAaSCV49+Q2j2MeuVjUdH6Gz3VK12zSZdI4OYR2XOa9maianDRtngcGMaaA1uH8r4bZzs1NjsbLR0fa3L6Lv6w2cQWaNl0C60Bc75XMUpdYM6nxOF8UNyRo2N7Ruc3h5qwJLx6zeHmtERiKi5JyqSepvDzVOEl09ZvDzWiL8JQFUk9TeHmpST1N4eaaiAzAkvHrN4eauknqbw81YxFJAG+M1QcKlNEYigJfGapzgQmi/CUBL4zUvjNJRAAOFSrvjNQYikgM5nDoX7/KUr4zVTdzJ7SmgDfGaoOFSmiMRQHFttnbaRReOP6nLMILTMB6x917SIqvJX9TWjn2iectbXr/9qQcNJvIUSPc1DtjM822aUAUJ7VzA5rhUncuLNEbPJdIp9FyGP/x7u0rsGPP+Ojj1sdSKdIASa0CuKcZ7kD2n6Kg8ArY35MWto5ckrXQSb990/ZO/v7Vw3y0hk31F0rbphXxV6kYXBnJa9p7SpeaCancsRKCe1QSC8U7FnU3D2kdtFC8XdyAdX6Ky4Bp3p2LWjTphWihkA8VV4KVGadizQDLvO/tRMwzUc4VKqtfFWuRkSMrRKOhk3+U/ZR84AopPToZN9eqfsrcAsTkZFo4/TA+KtjxUnwUdvQDgCQsc5LRlf+GhkB8UHSinbVZucfBceR0hqACStKVuisYNnOE48ChK8uwgn9gqsVitVpfRsZJyC7B1P1FtekHN6WzkAnJaF2RpeWbdOJOySSR87q7q27SMrKxuNSN91elNmmyWJ8MdodGAW0O/cv1tn2y2BgaZWBpAHaF3NofQ0ejIbjAKfsobyHJ+Olb8nReK4j49TsBozRjdH6MMIpuaez9l+sHAeKMopC/2laKHyk5PbJrGKitIN8Zqg4VKaIxFWlxL4zVOcCE0X4SgJfGal8ZpKIABwqVd8ZqDEUkBERiKlDn8KgDU70A0X4SpQ5/CpwNO1ANRGhz+FKHP4QEGIpIAGp3q6HP4QFTdzJ7Sms5gehfv8p8EqHP4QCRGIqUOfwqANTvQDXSO2LVV+lmzuDK9p7F3ZQ5/C/I03o1lqs0xc0O6h8Pot7DvePapo08ulX1uDP51686NfovSQYRTrL8eKSjd67R236BczTRc0XQHHsC6leTHJcrvC65g3NwUn+zjWdT8dsonKL7xJHis5KhCN5ri+EpKu31+F6/Y81eGYzSEQyb/ACn7LRs/1XEtRPRP3+U+CQf/AKvhZOxn67Oc2V37psmN41r4LhNlIG53wp0pJIr2KuzG4H6QmqrdLVp3r89sxb2ELQz9Q1IP0oqbMbgc7pXHxV9Ic1+ebQb3arM7j4qnYs+M5bpaOcgZidy4nTEk70myHtvU/hWORd00bzvJgk3+U/ZN0lRvK4c0p6F/W8p8EnPNMVf4WNst6jdMsg+rzmVhPKWDFv8A2X7GregJdNvZcJ307AtK25LwblVLm9JHI0fq5atIgdGK1+i+l0bsv0laCHXKj9l3Ps02YvNnY57S7cO0Lu3QmptnssADrO3dmFFcvllQ9R8kww+D+RKUjz1qJsmmitLXWiGoqPBegNW9QrDZGx/4aUA3r66zaHs0DRdhYP4XObEG9lB/CieXyVmS/wCiY4nG146/s41k0bBZCejbRcsCiIBqd6uhz+F4zbflnspJeEVN3MntKazmB6F+/wAp8EqHP4VCokRiKlDn8KgDU70A0X4SpQ5/CpwNO1ANRGhz+FKHP4QEGIpIAGp3q6HP4QCRGIqXxmqDhUoBovwlS+M1TnAhANRG+M1L4zQEGIpIBwqVd8ZoCpu5k9pTWczh0L9/lKV8ZoBIjEVL4zVBwqUA1nOy/C9uYISvjNU5wLSKoDoTarsy/ucVotXRVuguqvHetVgOjNOywUIp+V/SnWKwttmi7Qztq1eQdq+zwQ2ue1Nj3794CnPE58prpN+EQXmePjrvBeTomOtSk51OxYP6SG2zRuYWtDqCoWkrwRuKndVysXg51KLjLTONaqGKQ18p+yJVWl46KQf6T9lVRXtWx2aM8fQwqbidu+VV4Zqg4An8K7sVNaEpEENWQe1S+CCAqdixm9aeKVajsJWAeK9qd76qzsWsgNHOTDig1wJNUrzQqdi3ZJz/AIJPafsqkluBC0SN/Tyb/Kd38K4Gm0y3WtLv2WvZaoorFbYIWfrDSlV6I2CaiHSQhJjrUA9i+N2U6hHTNqb0sRALvEL1/s81Ji1ZDbgAAHgohyedGuLjH8ibcPgOxqbXg+k1Z0ENEQXLtN1F+64UaVA4DxVOcCFAZzc5dmdEhFQWkNRG+M1L4zWMvIMRSQDhUq74zQFTdzJ7Sms5nDoX7/KUr4zQCRGIqXxmqDhUoBovwlS+M1TnAhANRG+M1L4zQEGIpIBwqVd8ZoBIjEUkRiKASL8JSRfhKASiiiAIxFJEYikgBN3MntKaE3cye0poCIjEUkRiKASL8JSRfhKAqSMSsLT2FfC6/wCptnt+i33W1ea+C+9Wc8DLQy68Xhks9NsqpKSMNtUbYuLPBGv+zq1WC1WiSOGlTVdXOsVosxPTNpRf0M171Ksuk7M4RwC8QvMe0LZPao+lMLC3t8FP8HkY3RTfhnNuU4mVcnKC2dCWxoMMlPSVRFF+pp7V+fRDJGy17COz6L86t0qU129lsijUoeGCm5EAglbBtfFUGm8e1Z+xTsZ0J7ErtG9q0pVF9A1UcinbYqHwS8Fn0lFfSKztotabLr1jvQklpuCLn1LqHenDoua1ysDSesclhnb/AEZK4OTC2zzWlrmsFatK7J2fag2y3aQa6WHqGm9c/UfZbbLdIyZzSWBpruXrDUjUOzWCxQl0AvjtKjefnxpjpPbJRxvFSul2l4Rwtn2oMGi2QuDKOoCdy7WhgbE43UbPY4oI2hjQKBbDEVAL75XS7M6TRRGiPWIkX4Ski/CVrGyJRRRAEYikiMRSQAm7mT2lNCbuZPaU0BERiKSIxFAJF+EpIvwlAJRRRAEYikiMRSQApJ6m8PNUBJePWbw81oiMRQFUk9TeHmqcJLp6zeHmtEX4SgKpJ6m8PNSknqbw801EBmBJePWbw81dJPU3h5qxiKSAxmD+ifVzaXT5eadJPU3h5qTdzJ7SmgBST1N4eaoCS8es3h5rREYigKpJ6m8PNU4SXT1m8PNaIvwlAVST1N4ealJPU3h5pqIDExueSCWH92c185rHq3/cQ6jIjX/8fNfTjEVfastdkq5domOcFNaZ5H2qbHpra2eVrQAAT1Wkf9rz/rDqrPoe1mMkDt7Wn8r+jendBi32WdtK3mH7LpnXbYky3GS0dE0lTfjuWi10uZCeR4btudS8njF0Ekfa9o/2n8rINlvHrs4T+V3JrPszOjpH3YTuyC69tWr8sMjx0Ttx9JUurm7VuBCrcK2p6kj5wtl9beE/lF4kANXt/hvNftHQ8w/+p/CVqzQEsg3wv4VmcJmuqZnztyVxxt4ea5ENgllOJtPo0/lfaaK1LfaZgDC7fm1dnaqbIBbXtvQjfmFq22xpW7DeqwbrXqKOn9B6k2jST91N59J/K7g1K2I2m1vikIrQgnqn8ruHVjYvHYSCI2g9q7T0Bq6NEMAAAoFFc3mIRT+B+SX4HCa07kfN6nal/wBm0Y5j446hvjHv7P3X3cEDoowAWD9mc05Bdgk9p+y1UJttlbJykTSuqNUVGIKSepvDzVASXj1m8PNaIjEVhMxVJPU3h5qnCS6es3h5rRF+EoCqSepvDzUpJ6m8PNNRAZgSXj1m8PNXST1N4easYikgMZg/on1c2l0+XmnST1N4eak3cye0poAUk9TeHmqAkvHrN4ea0RGIoCqSepvDzVOEl09ZvDzWiL8JQFUk9TeHmpST1N4eaaiAzAkvHrN4eauknqbw81YxFJAG+M1QcKlNEYigJfGapzgQmi/CUBC8KB4SUQADhUq74zUGIpIDOZw6F+/ylK+M1U3cye0poA3xmqDhUpojEUBL4zVOcCE0X4SgJfGal8ZpKIABwqVd8ZqDEUkBlOQ6GQV8pWFqsUdqiLCdxXJm7mT2lNVTa8oo0n7Pi9JbO7FpAkvLd+YXzto2J6Me5x6m/wAaLtWlUQ0FzlvwzsiC0pGrPFqn7idRf/B2jK9jP+E2bEtGtHk4V210TcgqdG0DsWX/ANLJ/wC2YvsaP+TrqybItHWchwLN30X0ejtTrLYKXCBTIL6W6Fa17My+z8pGaGNVD8YnHhhZCTRbXgPFQYiktNvZspaM5nDoX7/KUr4zVTdzJ7SmqFQ3xmqDhUpojEUBL4zVOcCE0X4SgJfGal8ZpKIABwqVd8ZqDEUkBnM4dC/f5SlfGaqbuZPaU0Ab4zVBwqU0RiKAl8ZqnOBCaL8JQEvjNS+M0lEAA4VKu+M1BiKSAiIxFShz+FQBqd6AaL8JUoc/hU4GnagGojQ5/ClDn8ICDEUkADU71dDn8ICpu5k9pTWcwPQv3+U+CVDn8IBIjEVKHP4VAGp3oBovwlShz+FTgadqAaiNDn8KUOfwgIMRSQANTvV0OfwgKm7mT2lNZzA9C/f5T4JUOfwgEiMRUoc/hUAanegGi/CVKHP4VOBp2oBqI0OfwpQ5/CAgxFJAA1O9XQ5/CAqbuZPaU1nMD0L9/lPglQ5/CASIxFShz+FQBqd6AaL8JUoc/hU4GnagGojQ5/ClDn8ICDEUkADU71dDn8ICpu5k9pTWcwPQv3+U+CVDn8IBIjEVKHP4VAGp3oBovwlShz+FTgadqAaiNDn8KUOfwgIMRSQANTvV0OfwgEiMRUvjNUHCpQDRfhKl8ZqnOBCAaiN8ZqXxmgIMRSQDhUq74zQFTdzJ7Sms5nDoX7/KUr4zQCRGIqXxmqDhUoBovwlS+M1TnAhANRG+M1L4zQEGIpIBwqVd8ZoCpu5k9pTWczh0L9/lKV8ZoBIjEVL4zVBwqUA0X4SpfGapzgQgGojfGal8ZoCDEUkA4VKu+M0BU3cye0prOZw6F+/ylK+M0AkRiKl8Zqg4VKAaL8JUvjNU5wIQDURvjNS+M0BBiKSAcKlXfGaAqbuZPaU1nM4dC/f5SlfGaASIxFS+M1QcKlANF+EqXxmqc4EIBqI3xmpfGaAgxFJAOFSrvjNAJEYikiMRQCRfhKSL8JQCUUUQBGIpIjEUkAJu5k9pTQm7mT2lNAREYikiMRQCRfhKSL8JQCUUUQBGIpIjEUkAJu5k9pTQm7mT2lNAREYikiMRQCRfhKSL8JQCUUUQBGIq6ontKiAk3cye0prObuX+0/ZaICIjEUkRiKASL8JSRfhKASiiiAIxFJEYikgBN3MntKaE3cye0poCIjEUkRiKASL8JSRfhKASiiiAIxFJEYikgP/Z;imageBorder=#B3B3B3;" vertex="1" parent="1">
          <mxGeometry x="235.03" y="624.92" width="54.97" height="50.18" as="geometry" />
        </mxCell>
        <mxCell id="tAkwu-i30kwF6sE4yZoW-18" style="rounded=0;orthogonalLoop=1;jettySize=auto;html=1;entryX=0;entryY=0.5;entryDx=0;entryDy=0;strokeColor=#B3B3B3;endArrow=classicThin;endFill=1;" edge="1" parent="1" source="tAkwu-i30kwF6sE4yZoW-15" target="tAkwu-i30kwF6sE4yZoW-9">
          <mxGeometry relative="1" as="geometry" />
        </mxCell>
        <mxCell id="tAkwu-i30kwF6sE4yZoW-19" style="rounded=0;orthogonalLoop=1;jettySize=auto;html=1;entryX=0;entryY=0.5;entryDx=0;entryDy=0;strokeColor=#B3B3B3;endArrow=classicThin;endFill=1;" edge="1" parent="1" source="tAkwu-i30kwF6sE4yZoW-15" target="tAkwu-i30kwF6sE4yZoW-10">
          <mxGeometry relative="1" as="geometry" />
        </mxCell>
        <mxCell id="tAkwu-i30kwF6sE4yZoW-20" style="rounded=0;orthogonalLoop=1;jettySize=auto;html=1;entryX=0;entryY=0.5;entryDx=0;entryDy=0;strokeColor=#B3B3B3;endArrow=classicThin;endFill=1;" edge="1" parent="1" source="tAkwu-i30kwF6sE4yZoW-15" target="tAkwu-i30kwF6sE4yZoW-11">
          <mxGeometry relative="1" as="geometry" />
        </mxCell>
        <mxCell id="tAkwu-i30kwF6sE4yZoW-21" style="rounded=0;orthogonalLoop=1;jettySize=auto;html=1;entryX=0;entryY=0.5;entryDx=0;entryDy=0;strokeColor=#B3B3B3;endArrow=classicThin;endFill=1;" edge="1" parent="1" source="tAkwu-i30kwF6sE4yZoW-15" target="tAkwu-i30kwF6sE4yZoW-12">
          <mxGeometry relative="1" as="geometry" />
        </mxCell>
        <mxCell id="tAkwu-i30kwF6sE4yZoW-78" style="rounded=0;orthogonalLoop=1;jettySize=auto;html=1;endArrow=classicThin;endFill=1;strokeColor=#B3B3B3;entryX=0;entryY=0;entryDx=0;entryDy=0;" edge="1" parent="1" source="tAkwu-i30kwF6sE4yZoW-15" target="tAkwu-i30kwF6sE4yZoW-77">
          <mxGeometry relative="1" as="geometry">
            <mxPoint x="389" y="717" as="targetPoint" />
          </mxGeometry>
        </mxCell>
        <mxCell id="tAkwu-i30kwF6sE4yZoW-15" value="" style="shape=trapezoid;perimeter=trapezoidPerimeter;whiteSpace=wrap;html=1;fixedSize=1;rotation=90;size=15;strokeColor=#B3B3B3;fillColor=#FFFFFF;" vertex="1" parent="1">
          <mxGeometry x="300" y="622.13" width="76.57" height="55.75" as="geometry" />
        </mxCell>
        <mxCell id="yxy2WBUEEaB0hmf5WPmZ-32" value="&lt;font size=&quot;1&quot;&gt;&lt;span style=&quot;font-weight: normal; font-size: 15px;&quot;&gt;Encoder&lt;/span&gt;&lt;/font&gt;" style="text;html=1;strokeColor=none;fillColor=none;align=center;verticalAlign=middle;whiteSpace=wrap;rounded=0;fontColor=#182E3E;fontFamily=Times New Roman;fontStyle=1" parent="1" vertex="1">
          <mxGeometry x="318.28999999999996" y="640.01" width="40" height="20" as="geometry" />
        </mxCell>
        <mxCell id="tAkwu-i30kwF6sE4yZoW-26" value="&lt;font style=&quot;&quot; face=&quot;Times New Roman&quot;&gt;&lt;font style=&quot;font-size: 18px;&quot;&gt;Disentangled&lt;/font&gt;&lt;br&gt;&lt;/font&gt;" style="text;html=1;strokeColor=none;fillColor=none;align=center;verticalAlign=middle;rounded=0;shadow=0;sketch=0;whiteSpace=wrap;labelBorderColor=none;labelBackgroundColor=none;" vertex="1" parent="1">
          <mxGeometry x="224.9999999999999" y="690" width="150" height="30" as="geometry" />
        </mxCell>
        <mxCell id="tAkwu-i30kwF6sE4yZoW-79" style="rounded=0;orthogonalLoop=1;jettySize=auto;html=1;entryX=0;entryY=0.75;entryDx=0;entryDy=0;endArrow=classicThin;endFill=1;strokeColor=#B3B3B3;" edge="1" parent="1" source="tAkwu-i30kwF6sE4yZoW-76" target="tAkwu-i30kwF6sE4yZoW-14">
          <mxGeometry relative="1" as="geometry" />
        </mxCell>
        <mxCell id="tAkwu-i30kwF6sE4yZoW-76" value="" style="ellipse;whiteSpace=wrap;html=1;aspect=fixed;fillColor=#dae8fc;strokeColor=#6c8ebf;" vertex="1" parent="1">
          <mxGeometry x="195" y="720" width="20" height="20" as="geometry" />
        </mxCell>
        <mxCell id="tAkwu-i30kwF6sE4yZoW-77" value="" style="ellipse;whiteSpace=wrap;html=1;aspect=fixed;fillColor=#dae8fc;strokeColor=#6c8ebf;" vertex="1" parent="1">
          <mxGeometry x="387.96000000000004" y="720" width="20" height="20" as="geometry" />
        </mxCell>
        <mxCell id="tAkwu-i30kwF6sE4yZoW-82" value="&lt;font style=&quot;&quot; face=&quot;Times New Roman&quot;&gt;&lt;br&gt;&lt;/font&gt;" style="text;html=1;strokeColor=none;fillColor=none;align=center;verticalAlign=middle;rounded=0;shadow=0;sketch=0;whiteSpace=wrap;labelBorderColor=none;labelBackgroundColor=none;" vertex="1" parent="1">
          <mxGeometry x="208.08999999999997" y="726" width="187.91" as="geometry" />
        </mxCell>
        <mxCell id="tAkwu-i30kwF6sE4yZoW-86" value="&lt;font face=&quot;Times New Roman&quot; style=&quot;font-size: 17px;&quot;&gt;GT Factors&lt;/font&gt;" style="text;html=1;strokeColor=none;fillColor=none;align=center;verticalAlign=middle;whiteSpace=wrap;rounded=0;" vertex="1" parent="1">
          <mxGeometry x="522.04" y="530" width="60" height="30" as="geometry" />
        </mxCell>
        <mxCell id="tAkwu-i30kwF6sE4yZoW-87" value="&lt;font face=&quot;Times New Roman&quot; style=&quot;font-size: 17px;&quot;&gt;Latent Codes&lt;/font&gt;" style="text;html=1;strokeColor=none;fillColor=none;align=center;verticalAlign=middle;whiteSpace=wrap;rounded=0;" vertex="1" parent="1">
          <mxGeometry x="712.0400000000001" y="530" width="65.93" height="30" as="geometry" />
        </mxCell>
        <mxCell id="tAkwu-i30kwF6sE4yZoW-88" style="rounded=0;orthogonalLoop=1;jettySize=auto;html=1;entryX=0;entryY=0.25;entryDx=0;entryDy=0;endArrow=classicThin;endFill=1;strokeColor=#B3B3B3;" edge="1" parent="1" source="tAkwu-i30kwF6sE4yZoW-89" target="tAkwu-i30kwF6sE4yZoW-101">
          <mxGeometry relative="1" as="geometry" />
        </mxCell>
        <mxCell id="tAkwu-i30kwF6sE4yZoW-89" value="" style="ellipse;whiteSpace=wrap;html=1;aspect=fixed;fillColor=#ffe6cc;strokeColor=#d79b00;" vertex="1" parent="1">
          <mxGeometry x="542.04" y="570" width="20" height="20" as="geometry" />
        </mxCell>
        <mxCell id="tAkwu-i30kwF6sE4yZoW-90" style="rounded=0;orthogonalLoop=1;jettySize=auto;html=1;entryX=0;entryY=0.5;entryDx=0;entryDy=0;endArrow=classicThin;endFill=1;strokeColor=#B3B3B3;" edge="1" parent="1" source="tAkwu-i30kwF6sE4yZoW-91" target="tAkwu-i30kwF6sE4yZoW-101">
          <mxGeometry relative="1" as="geometry" />
        </mxCell>
        <mxCell id="tAkwu-i30kwF6sE4yZoW-91" value="" style="ellipse;whiteSpace=wrap;html=1;aspect=fixed;fillColor=#dae8fc;strokeColor=#6c8ebf;" vertex="1" parent="1">
          <mxGeometry x="542.04" y="610" width="20" height="20" as="geometry" />
        </mxCell>
        <mxCell id="tAkwu-i30kwF6sE4yZoW-92" style="rounded=0;orthogonalLoop=1;jettySize=auto;html=1;entryX=0;entryY=0.5;entryDx=0;entryDy=0;endArrow=classicThin;endFill=1;strokeColor=#B3B3B3;" edge="1" parent="1" source="tAkwu-i30kwF6sE4yZoW-93" target="tAkwu-i30kwF6sE4yZoW-101">
          <mxGeometry relative="1" as="geometry" />
        </mxCell>
        <mxCell id="tAkwu-i30kwF6sE4yZoW-93" value="" style="ellipse;whiteSpace=wrap;html=1;aspect=fixed;fillColor=#dae8fc;strokeColor=#6c8ebf;" vertex="1" parent="1">
          <mxGeometry x="542.04" y="650" width="20" height="20" as="geometry" />
        </mxCell>
        <mxCell id="tAkwu-i30kwF6sE4yZoW-94" style="rounded=0;orthogonalLoop=1;jettySize=auto;html=1;entryX=0;entryY=0.5;entryDx=0;entryDy=0;endArrow=classicThin;endFill=1;strokeColor=#B3B3B3;" edge="1" parent="1" source="tAkwu-i30kwF6sE4yZoW-95" target="tAkwu-i30kwF6sE4yZoW-101">
          <mxGeometry relative="1" as="geometry" />
        </mxCell>
        <mxCell id="tAkwu-i30kwF6sE4yZoW-95" value="" style="ellipse;whiteSpace=wrap;html=1;aspect=fixed;fillColor=#dae8fc;strokeColor=#6c8ebf;" vertex="1" parent="1">
          <mxGeometry x="542.04" y="690" width="20" height="20" as="geometry" />
        </mxCell>
        <mxCell id="tAkwu-i30kwF6sE4yZoW-96" value="" style="ellipse;whiteSpace=wrap;html=1;aspect=fixed;fillColor=#dae8fc;strokeColor=#6c8ebf;" vertex="1" parent="1">
          <mxGeometry x="735" y="570" width="20" height="20" as="geometry" />
        </mxCell>
        <mxCell id="tAkwu-i30kwF6sE4yZoW-97" value="" style="ellipse;whiteSpace=wrap;html=1;aspect=fixed;fillColor=#ffe6cc;strokeColor=#d79b00;" vertex="1" parent="1">
          <mxGeometry x="735" y="610" width="20" height="20" as="geometry" />
        </mxCell>
        <mxCell id="tAkwu-i30kwF6sE4yZoW-98" value="" style="ellipse;whiteSpace=wrap;html=1;aspect=fixed;fillColor=#dae8fc;strokeColor=#6c8ebf;" vertex="1" parent="1">
          <mxGeometry x="735" y="650" width="20" height="20" as="geometry" />
        </mxCell>
        <mxCell id="tAkwu-i30kwF6sE4yZoW-99" value="" style="ellipse;whiteSpace=wrap;html=1;aspect=fixed;fillColor=#dae8fc;strokeColor=#6c8ebf;" vertex="1" parent="1">
          <mxGeometry x="735" y="690" width="20" height="20" as="geometry" />
        </mxCell>
        <mxCell id="tAkwu-i30kwF6sE4yZoW-100" style="rounded=0;orthogonalLoop=1;jettySize=auto;html=1;endArrow=classicThin;endFill=1;strokeColor=#B3B3B3;" edge="1" parent="1" source="tAkwu-i30kwF6sE4yZoW-101">
          <mxGeometry relative="1" as="geometry">
            <mxPoint x="657.04" y="660.01" as="targetPoint" />
          </mxGeometry>
        </mxCell>
        <mxCell id="tAkwu-i30kwF6sE4yZoW-101" value="" style="shape=image;verticalLabelPosition=bottom;labelBackgroundColor=default;verticalAlign=top;aspect=fixed;imageAspect=0;image=data:image/jpeg,/9j/4AAQSkZJRgABAQAAAQABAAD/4gHYSUNDX1BST0ZJTEUAAQEAAAHIAAAAAAQwAABtbnRyUkdCIFhZWiAH4AABAAEAAAAAAABhY3NwAAAAAAAAAAAAAAAAAAAAAAAAAAAAAAAAAAAAAQAA9tYAAQAAAADTLQAAAAAAAAAAAAAAAAAAAAAAAAAAAAAAAAAAAAAAAAAAAAAAAAAAAAAAAAAAAAAAAAAAAAlkZXNjAAAA8AAAACRyWFlaAAABFAAAABRnWFlaAAABKAAAABRiWFlaAAABPAAAABR3dHB0AAABUAAAABRyVFJDAAABZAAAAChnVFJDAAABZAAAAChiVFJDAAABZAAAAChjcHJ0AAABjAAAADxtbHVjAAAAAAAAAAEAAAAMZW5VUwAAAAgAAAAcAHMAUgBHAEJYWVogAAAAAAAAb6IAADj1AAADkFhZWiAAAAAAAABimQAAt4UAABjaWFlaIAAAAAAAACSgAAAPhAAAts9YWVogAAAAAAAA9tYAAQAAAADTLXBhcmEAAAAAAAQAAAACZmYAAPKnAAANWQAAE9AAAApbAAAAAAAAAABtbHVjAAAAAAAAAAEAAAAMZW5VUwAAACAAAAAcAEcAbwBvAGcAbABlACAASQBuAGMALgAgADIAMAAxADb/2wBDAAMCAgMCAgMDAwMEAwMEBQgFBQQEBQoHBwYIDAoMDAsKCwsNDhIQDQ4RDgsLEBYQERMUFRUVDA8XGBYUGBIUFRT/2wBDAQMEBAUEBQkFBQkUDQsNFBQUFBQUFBQUFBQUFBQUFBQUFBQUFBQUFBQUFBQUFBQUFBQUFBQUFBQUFBQUFBQUFBT/wAARCAFaAXsDASIAAhEBAxEB/8QAHQABAAMAAwEBAQAAAAAAAAAAAgABAwQHCAYFCf/EAD8QAAEDAQQGCQMDAwQCAgMAAAEAAgMRBBIyUQUGByGS4RMiMTNBQlJyoWGx0RRxgQgVI2KCkcEWNBdDY3Pw/8QAGwEBAAEFAQAAAAAAAAAAAAAAAAYBAgMEBwX/xAAoEQACAgICAgEEAwEBAQAAAAAAAQIDBBEFEiExEwYUMkEiUWFSFTP/2gAMAwEAAhEDEQA/AP6pojEVL4zVBwqUA0X4SpfGapzgQgGojfGal8ZoCDEUkA4VKu+M0BU3cye0prOZw6F+/wApSvjNAJEYipfGaoOFSgGi/CVL4zVOcCEA1Eb4zUvjNAQYikgHCpV3xmgKm7mT2lNZzOHQv3+UpXxmgEiMRUvjNUHCpQDRfhKl8ZqnOBCAaiN8ZqXxmgIMRSQDhUq74zQFTdzJ7Sms5nDoX7/KUr4zQCRGIqXxmqDhUoBovwlS+M1TnAhANRG+M1L4zQEGIpIBwqVd8ZoCpu5k9pTWczh0L9/lKV8ZoBIjEVL4zVBwqUA0X4SpfGapzgQgGojfGal8ZoCDEUkA4VKu+M0AkRiKSIxFAJF+EpIvwlAJRRRAEYikiMRSQAm7mT2lNCbuZPaU0BERiKSIxFAJF+EpIvwlAJRRRAEYikiMRSQAm7mT2lNCbuZPaU0BERiKSIxFAJF+EpIvwlAJRRRAEYikiMRSQAm7mT2lNCbuZPaU0BERiKSIxFAJF+EpIvwlAJRRRAEYikiMRSQAm7mT2lNCbuZPaU0BERiKSIxFAJF+EpIvwlAJRRRAEYikiMRSQApJ6m8PNUBJePWbw81oiMRQFUk9TeHmqcJLp6zeHmtEX4SgKpJ6m8PNSknqbw801EBmBJePWbw81dJPU3h5qxiKSAxmD+ifVzaXT5eadJPU3h5qTdzJ7SmgBST1N4eaoCS8es3h5rREYigKpJ6m8PNU4SXT1m8PNaIvwlAVST1N4ealJPU3h5pqIDMCS8es3h5q6SepvDzVjEUkBjMH9E+rm0uny806SepvDzUm7mT2lNACknqbw81QEl49ZvDzWiIxFAVST1N4eapwkunrN4ea0RfhKAqknqbw81KSepvDzTUQGYEl49ZvDzV0k9TeHmrGIpIDGYP6J9XNpdPl5p0k9TeHmpN3MntKaAFJPU3h5qgJLx6zeHmtERiKAqknqbw81ThJdPWbw81oi/CUBVJPU3h5qUk9TeHmmogMwJLx6zeHmrpJ6m8PNWMRSQGMwf0T6ubS6fLzTpJ6m8PNSbuZPaU0AKSepvDzVASXj1m8PNaIjEUBVJPU3h5qnCS6es3h5rRF+EoCqSepvDzUpJ6m8PNNRAZgSXj1m8PNXST1N4easYikgDfGaoOFSmiMRQEvjNU5wITRfhKAl8ZqXxmkogAHCpV3xmoMRSQGczh0L9/lKV8Zqpu5k9pTQBvjNUHCpTRGIoCXxmqc4EJovwlAS+M1L4zSUQADhUq74zUGIpIDOZw6F+/ylK+M1U3cye0poA3xmqDhUpojEUBL4zVOcCEiaKn4SgJfGal8ZpKIABwqVd8ZqDEUkBnM4dC/f5SlfGaqbuZPaU0Ab4zVBwqU0RiKAl8ZqnOBCaL8JQEvjNS+M0lEAA4VKu+M1BiKSAzmcOhfv8pSvjNVN3MntKaAN8Zqg4VKaIxFAS+M1TnAhNF+EoCXxmpfGaSiAAcKlXfGagxFJAREYipQ5/CoA1O9ANF+EqUOfwqcDTtQDURoc/hShz+EBBiKSABqd6uhz+EBU3cye0prOYHoX7/KfBKhz+EAkRiKlDn8KgDU70A0X4SpQ5/CpwNO1ANRGhz+FKHP4QEGIpIAGp3q6HP4QFTdzJ7Smspgehfv8p8FJJRE0uc6gH0T2BveGCpIH7r8LTOnYbGHUlb2Zr8zXPWiCw2Elk3WFV5z1x2lWl8kzY5K0OakXG8VZmPZ4ufyNeHFtnbmndpf6N9GTVFfAr9XQOvrLc0XpgK5leRLbrnbLQaucSf3T0ftBt9knYGk3K796nEvptSp0vZE6vqOM5/4e9dH6SitMQIlaT+654IIqF5j1E2nOlkjZPNQLvnRGttgtdmiItILiN+5QDP4y3DnrWybY2ZXkR2mfRDEUlxIbdDOTckr/C5IqfN8LxWmvZv72VN3MntKazmB6F+/ynwSoc/hUKiRGIqUOfwqANTvQDRfhKlDn8KnA07UA1EaHP4Uoc/hAQYikgAaneroc/hAVN3MntKazmB6F+/ynwSoc/hAJEYipQ5/CoA1O9ANF+EqUOfwqcDTtQDURoc/hShz+EBBiKSABqd6uhz+EAkRiKl8Zqg4VKAaL8JUvjNU5wIQDURvjNS+M0BBiKSAcKlWXgeKAqbuZPaU1x7ROBDJv8p+yo2xo8Vck2U2clEYishaWnxSbKCSVRpoqaovwlS+M1TnAhUA1Eb4zUvjNAQYihLaGxdqxtltbZAXEhdda6bS4dCh957RTNbmPjWZEusEa12RCiPabPq9Ma6WPR0MokIHVPj9F8np/avo9tmkY1wDvcuhddtpH91ZMY5iKg9hXWulNNzzyE/qH0/ddBwfpmM0pWeyEZv1F8bcavJ2hr1tBdbhI2KXca+K6dtGk5pp5S99alYyW57yQ6Qu/crhzSgVNVNaMGOLpJEGzMy3LnuRyZJ6k0Kze/qkg0X55trAd5V/3BpFKr0ndFLSNNRcV4P1bHpi2WS0Axy3aLsfU3aDbLNI3prRVoK6tbK1wqtI7SWHqvLf2WtLFjkxakj0sfPtpfg9eas7WbHEW9NIDSnmXYuitpGj7ddukGv+peBotIWippO8fyvu9VNc5NGuj6S0ONMyofnfTNbTnH2SvD+opdlGzwj3LDb2W2yyPZ2XT9lzO1dEambYoHWf9OXsLnNpv/Zd06L0k3SFjZMCKOyXNszBtw5amvBPcfJhkR3FnPRGIqXxmqDhUrzTbGi/CVL4zVOcCEA1Eb4zUvjNAQYikgHCpV3xmgKm7mT2lNZzOHQv3+UpXxmgEiMRUvjNUHCpQDRfhKl8ZqnOBCAaiN8ZqXxmgIMRSQDhUq74zQCRGIpIjEUAkX4Ski/CUAlFEXG60k9iAzllEQcSaL5TWfW4aJjLhINw8Chr9rC3ReipJGSC8PAfsvKmtm1S0221TxXnEAkdqk3FcXLLfZ+jwOR5GOItfs7a09twdZYZaTHcD4/Rfiv/AKgHAj/O75XQGktNTWyGWoO9p+y45kld5CuiV8LhRj/KJC7Ocub/AIs9GWX+oB75A3p3f8lfUaJ2yG2Pp0x308V5MZanwuDqGq/RsOtU1lebtfDsKtt4LFmv4RL6+fsj+TPbeg9dRpC7WUGv1X1kNuZMyt9v/K8OaP2p2uw0uh+7Ir7nV7bJapbge5wqR2lRbL+mrVuVfo9/F5+mx9WetWuDh2gq3EAdq+D1M1zs+kLJeltDWup4lfsae1is9n0eZGTtJGSh08SyFnxtEojfCUO6Z+NtL1jGhbG54fTq13FeU9d9dDrCZQXl1ajevvtpeu50kJYr9Q0U7V0RbJzeP1K6jwHF/FFSmvJzHn+RlO34oPwce1z3IpKekrKS0G7RZWl16GT6NO/+EiF0mFaiiHqK9sxdIa1I3LJzukLguT0Qcris/WcPurpxjJaZnco6PzZLKCdwosjZ7u+lV+zLAAuPLBQFaEcaLe9CE0zKN5FAthX+EmQb+xchsIA3hbsYxgtIpJxXoyhddJWzXmtVRi3uVAUARxUjB4b2fQ6vaU/SW1r60oCvVuzzXr9RZYbP0nZ9V43bL0Ebng7w0/Zdn7K9bJG6ZbG8lrRTeSoZznGxyKnPXol3CclKqz45P2e14JOlhY7MVSGIr8fQeloLXY4A2VrjdHYv2BiK4dZBwk0zrEZKS2hIvwlJF+ErGXCUUUQBGIpIjEUkAJu5k9pTQm7mT2lNAREYikiMRQCRfhKSL8JQCUUUQBGIpIjEUkAKSepvDzVASXj1m8PNaIjEUBVJPU3h5qnCS6es3h5rRF+EoCqSepvDzXE0pLJBYZX327h6ea5y/G1rl6PQVqdWlGq+C3NIsm9RbPPu1rW9/wCmngbK2or4H8rzHY4rfpnSk4jc11X+k/lfcbT9OyS6ctMPSGmSexLRLbfpd19l+sniuoY2sSnvE5vfvMv6MrR2z3Sk0JvMaRdNaNOX7r6OPZlpIsPUb2eg/leodFap2SGzGtnbhy+i+jZq9YQ3/wBdgXl2/UclLSie7XwdfXyzxDpHZnphpNxjOA/lfO2jULTVmkc5zWgew/le+p9WLA9v/qsP7L5jWHUeyWmJwjszQcwFtUfU7k1GUTWv+noSW0zw7Nom22TvCwU/0H8rJlutNloWvZu/0n8r0PrXsitFqv8ARMIrkF1fprZRb7CHVL930Uto5DHvj5n5IjkcRdjy3DZxdBbQNJ2FzGiZgb7T+V9nbtotstOibvTtLj9D+V0/pKwzaKmDHONa+KkdrmLKF5ot54NNzU9IuXI3Y8Okj9C36atlstU1+RpBPp5r860CRxNHs4T+UwCXOPaSiSvcqhGPpEassds+7OFNHJ0L6ubS6fL9P3T6OT1t4T+VtPToJPafsk40HYtrY2ce5J6m8J/KUYkaT1m8J/KZzWdSCd6r7HsbjJ62n/bzQex5FbzeHmr3lWQbhTWivoYa+mJv8N5qwH+tvDzRoR+60VrRjYCJKmj2cPNBzJRvvsp7T+VoMbv4SVPQ9HGk6To3guaRdO4N5r97Qlrl0baBIyRodndP5X4kwuxye0/ZcgzG42hWC+CnHRdGbhNTj+j0rse1ztVunZHLM0gOp2H8r0XDM6Um69p/2814b2Ya0DQNrDpXbr1d5XrDUDXKHWK6YyDUeBXFvqHAlC12xjpHXuEz1kUqMn5PuqSepvDzVOEl09ZvDzTBqqfhKg5KyqSepvDzUpJ6m8PNNRAZgSXj1m8PNXST1N4easYikgMZg/on1c2l0+XmnST1N4eak3cye0poAUk9TeHmqAkvHrN4ea0RGIoCqSepvDzVOEl09ZvDzWiL8JQFUk9TeHmpST1N4eaaiAzAkvHrN4eauknqbw81YxFJAG+M1QcKlNEYigJfGapzgQmi/CUBL4zX4Oujx/45bN/lX0C/H1rh6XQVqb21aslf5ox2fgz+ee0eSmtdq3n/APiV2B/TvM06WA/15L8HapoEw6btU9z+aJbBtKizabcC67STxXRZ7+1cf8IBTHrk7/095xlv6Y09OX0XLvNXz2htKC2Wc0eD1M/ovoq1XOrIuMtM6BBqS2irzUeqSagU/ZaIjEVjLzGSCJ/axp/2r43WvVlluhmIiadxO5q+6X4enrY2CzzAuA6p7Vt49k4TTiYLYxcfJ4n2qaHFj0uBSnWPgviGgRilV2NtitnSaa3GvWPYuvjvK7zgWOePDZxbmZw+ZxiAOb4nLespHgeK1oWkj9lm9oP0XvRekeDF+TKV9YJB29U/ZbVCwnFIZN5wlO+WlZFJMyexGg7D8IGlUxIEb/XdT6LImVKqB2KF1RRXeoa1oqkd1Sa1QeTUUzS3ZrPpd+4qzLuVrZa0yxSpKpzwFmJTeKl699VY5JDyGZ16J4r5T9ls1gI3IvbWGT2lcxg6oWL5N+jHKRhvpucWn6LvvYPrH/amwh8hO4Dearo1rL5X72gtZn6EkaGk7iBuUf5TF+5pdZ63FZ7xMhNvwe79C6WbpKK/UHd4L9FzgQut9j+nDpTRl5zt9zxXZBNWLheXT8F0of0dwx7VdUpr9l3xmpfGaSi0zZAHCpV3xmoMRSQGczh0L9/lKV8Zqpu5k9pSJA7TRAVfGaJeASuLbdIR2YGsjW/uV1zrPtCbo17w2Ybsit3HxLMh6gjWtvhUtyOzXWlrT21U6cPBAXm21bbZGW4RiR1F9pqbtEdpicNLyakL0ruIvoh2kjQr5Km2XWLO474zUvjNGJ9+NjswCtF4B7AA4VKu+M1BiKSAiIxFShz+FQBqd6AaL8JUoc/hU4GnagGuFpeLptHyszC5dDn8ITML4yK9v0V0XpplGtrR5c2x6rBtnnmDKk18F5w1S0lJoTTc5HVAlK9w7WtCNn0FKWjfv3/wvD+sWh59H6TtLmm6L5PYuh8ZP7mvz+iD8jD7efZHrzY/reNJQN6STtbn9F3pBOyYVaarwzsd1tdouNoml7AvXepWnW6Vs95r61C8HlsNwm7EvB7XGZStrSb8n2KIxFU01GL4UANTvUYPfETRdQbU9ZjosTNv08F21M4tGL4Xln+ofSM0M0tx9Ot/2vb4mpWZCTPD5fI+3x3NHU2utu/uVvEhNd9V+GxgLFT5Xz0L3VKQqAN67bhVdYI4ZkWu61yZmWXiRks5I6fsuQ1tSd6ssOfwvV2Ye2j8y0NPRSe0qUNeyi5dpg/wyGvlP2WT4HA9tf4VTMp7M6LOnWK36J7RvNf4WRY6p3/CKTRcpBrRB+ErTojn8KGE07a/wqOxl/dGbXEncFoGup4rVsLiRv8AhbCA07VY3JlkrDiNZVx3Ldke4LVlmNTvotmw07D8J1b9sxSmcd8R6CTK6fsuTQgKTM/wyb/KfstCw07fhZEtGHsZsqEmMBnFcwrDSPH4SY03jvoQsN63EpKWvJ6V2QacZZLG2O/SoAXfGjLQLTY74NV4u1N1ndYrbZ4ukpVwC9c6jWo2vQbHl1a0XGefxPhl8n9nbuByVdRGG/SPplEaHP4Uoc/hQ0lZBiKSABqd6uhz+EAbQ4NgkJ9JX5Gn9NQ6Piq6QN3LXWLSDdHaOkke7ddP2XQW1jaI10EjLPNdcBTtXq4GHLKmkvR5mblxxq22/JntN2mvspl/SyXu3sK6T0rr9bbc914n/lfO6R1jtNuLumlvb8lnY9HT6RkAYak+NF1TEopw61HqmzluVyF+VY+u9HJs2kbTbLe0hpcf3XeOyaC3frGufGQ2o3r4zUjZlbrRbopnCsftXp3U/VGLR1kiNyjgBU0Ue5fOgo9Ikj4nBsclOR97Y6/poq7uqPsuQs2MIaADuAySoc/hc4b2zoK8IgxFJAA1O9XQ5/CoVEiMRUvjNUHCpQDRfhKl8ZqnOBCAao7wqvjNS+M0B89rhoz+5aNfHdqV5P2q6hO0aJpiwitSvZsoDwQur9rWrDdLWEtu1q3JSPiMx02Kt+meLyOKr62/2eHLJbn6PY+68tND2L0/sg2hMstmZG94JIAqV0Jr1qgNCRzkMLaA+CeqmnP0E8PWpQroeTj15tPX9EDx8mWBdqR780JpVukbL0gII+i/UaakrozZ5tCDrKyAy9tPFdx6N0g20wNffBvDNctzcOeNNprwdIxcmN8E0x6Tm6JpXkz+oa0X5pd/n/7Xp/WW3NgYesOxeRdu2khPNIQa9b/tetw1b+RSI99RS3itHWkL6tXIY6rR8r8yC0At7VyG2mlBVdpxv/mjjkovZzQesUr1P2XDFo6x3rVswd4rYMTixz0/Ty+0/ZIt3rOZ46CQeJYVteGauLN6Ddr9EOiBLgQtb4zRvbyhXZkYGnkoYBTsWt76q3GrSmivZlNYB4JXKKBwzSvDNC3YWDrFa0BWYeA45KdI3NC1sqenQybvKfstD2LGZ9YZN/lP2WpkFO1Ub0UKA35pNN1zlmJW5ovlaC6pWOXlaDW/BnYLQ9unLGQ8gdIvbGyzTLf/AB2NhIJ3Lw9HMIbXHLXA6q7X1U2zf2eBkHTEU8FCuY463Pj1rXon/wBOZ0caTU2e0I5L7A7NPtXnfRW37po2t6c/8r6CDbOHgf56/wArnlnB5db04nSYclRJeGdzXqOK4GkdLNsNnfIadXNdM6Q24izF/wDnI/lfFaxbe/1Vnkh6cm8stPBZUmnKPg1r+Xx6k/J9ltP2rwv0baLKx7Q4Nd2H6Ly5rPpqa2WmZxlc5pJ8VtrPrD/c5p5r9bzTvXzVrnDyd/apziYUMKvUfZzXkOSszLPfg4oa6Rw7aLvnZPs/fpZsc1wuAoV8Vs11BbrW6Ill6v0Xr/Zjqk3VyydHdDRdAXlcjnqivUH/ACJBwvHfI1ZNeD9jVPVqDR9gDHQNvCm8hfTNgZG3qtACbCGiijnAhc7sslZJyZ0WEFBaQ1Eb4zUvjNYi8gxFJAOFSrvjNAJEYikiMRQCRfhKSL8JQCUUUQBGIrhaU0a3SDLrqdi5oxFWRVXRk4vaKNJrTPO22HUBssFpuMvdU9g+i8+6Z0NJom0j/GW0OS966a0FZ9JQTdKK1afD6Lz/ALTdnr5JnOs8VQDkp/w3Kp6qsIVzHF/InOHs6e0BrZLoyZmIUXcOp21OSZwje8tAp2ldJaW1Yt9gtFejo0LhWfSlr0bI6m5wpuUqvx6MyOteSIYudfg2dJ70emNd9eWCzAtlBJaPFebNoGmDpV7iXVq5YaX1wttpZRx3Up2r5e1Wx9pHXVcbjI4tf+m7yfIfcw0aQmgC3FfArjRmrUw4qSVPUUiGNbOQwkF1Vs12S4TXG8Vux6zdvJhkjmvINnk9p+y2G5cMupBJv3Fp+y5IJr2q7ZrNGv8AKqlXFV/KoE3nJssHSngi/Cdyl4qnO6pV3YbGOxX/AMKt6lSnYoTzFRGvWKl5WuQKtHcSe0/ZXIQ1qxtDz0MmV0oTSdVY3IuS8ldKQ6tVjJaKucs7x3lZF4LirHPybCiMuvJRx0N5Zg18VoDRu9IS0zPGTr/E/YsukDZ6Edq53/lMkYpUr8EO3LOV1FbOuMvLMscq5eFI/am0+60OderVfnzvExqSvynWno3O3qfrur2rRmlD0W2Sus8tmmkwG2WQg77p+yz0RY36SmuNYXb6blhI59uZJHH1nXSu3Ni+o01pt4daouoXZKO5eUqk5NntcXhyumto7Q2BarusrYL8ZZ2dq9EWSziz1AX42rmrVn0O1nRNpQZL6AbnFcxzsn7i1yXo7FiY6x61ASL8JSRfhK843hKKKIAjEUkRiKSAFJPU3h5qgJLx6zeHmtERiKAqknqbw81ThJdPWbw81oi/CUBVJPU3h5qUk9TeHmmogMwJLx6zeHmrpJ6m8PNWMRSQGMzXmJ9XNIuny81wbfoaK1xvvsjcSPSfyv0Zu5k9pTV0ZOL2ijSa0zpzW/Z4LXHJ0UbGn6M5rpTTWyHSRtcrmGg//XzXsp8LHje0H+F+fadFRSl3+Jh/2hSLE5m3H8Hg5XEU5D7M8Ea0agW/Q7XGR43Cu9nNfDTxSw1vOb+13mvcm0rZ+NMxPDYhW75QvJe0rVN2rUjmlpbR1N/7qe4XKwyql2f8iFcrxn26bj6PlYekIPXZwn8rWknqbwn8rCyOqO1bl1GqU1PcUyFSXkIMl49ZvDzWrDJXE2vtP5WbTUlaM30zWTfksaNi94hkq9pF09jTl+65DXSU3Pbw81w3k9DJ7St7yy7NdxN+nlrjZwH8qCWS8aPYP9p/KwvU8VQk6xTZZ1OW2SQ+dnAfyrLpKY2cJ/K4wekX0aaFNlricq9J62cPNVel9bODmshJuUMqbLeoi+QONXN4T+UTK/1s4eayc8lxRv0VjZcoktD5OifVzaXT5eaMj5D52H/afys7Q/8Awye0/ZR7tyxtmRRM3ukNeuyntP5XHcJHOPXbw80ybxyCppq5wWKUjaUdEYJB528J/K3a6Sm97eE/lYHcQnf3ZKxT0UktnMbfPmZw81nOJabntp7eapktELTaaD6pZdpGFJ7PzbS2UvNHtB9vNcYCaR4YJG1P+k/lcqSW9IRXtX7mrmrjtJaRhAaSCV49+Q2j2MeuVjUdH6Gz3VK12zSZdI4OYR2XOa9maianDRtngcGMaaA1uH8r4bZzs1NjsbLR0fa3L6Lv6w2cQWaNl0C60Bc75XMUpdYM6nxOF8UNyRo2N7Ruc3h5qwJLx6zeHmtERiKi5JyqSepvDzVOEl09ZvDzWiL8JQFUk9TeHmpST1N4eaaiAzAkvHrN4eauknqbw81YxFJAG+M1QcKlNEYigJfGapzgQmi/CUBL4zUvjNJRAAOFSrvjNQYikgM5nDoX7/KUr4zVTdzJ7SmgDfGaoOFSmiMRQHFttnbaRReOP6nLMILTMB6x917SIqvJX9TWjn2iectbXr/9qQcNJvIUSPc1DtjM822aUAUJ7VzA5rhUncuLNEbPJdIp9FyGP/x7u0rsGPP+Ojj1sdSKdIASa0CuKcZ7kD2n6Kg8ArY35MWto5ckrXQSb990/ZO/v7Vw3y0hk31F0rbphXxV6kYXBnJa9p7SpeaCancsRKCe1QSC8U7FnU3D2kdtFC8XdyAdX6Ky4Bp3p2LWjTphWihkA8VV4KVGadizQDLvO/tRMwzUc4VKqtfFWuRkSMrRKOhk3+U/ZR84AopPToZN9eqfsrcAsTkZFo4/TA+KtjxUnwUdvQDgCQsc5LRlf+GhkB8UHSinbVZucfBceR0hqACStKVuisYNnOE48ChK8uwgn9gqsVitVpfRsZJyC7B1P1FtekHN6WzkAnJaF2RpeWbdOJOySSR87q7q27SMrKxuNSN91elNmmyWJ8MdodGAW0O/cv1tn2y2BgaZWBpAHaF3NofQ0ejIbjAKfsobyHJ+Olb8nReK4j49TsBozRjdH6MMIpuaez9l+sHAeKMopC/2laKHyk5PbJrGKitIN8Zqg4VKaIxFWlxL4zVOcCE0X4SgJfGal8ZpKIABwqVd8ZqDEUkBERiKlDn8KgDU70A0X4SpQ5/CpwNO1ANRGhz+FKHP4QEGIpIAGp3q6HP4QFTdzJ7Sms5gehfv8p8EqHP4QCRGIqUOfwqANTvQDXSO2LVV+lmzuDK9p7F3ZQ5/C/I03o1lqs0xc0O6h8Pot7DvePapo08ulX1uDP51686NfovSQYRTrL8eKSjd67R236BczTRc0XQHHsC6leTHJcrvC65g3NwUn+zjWdT8dsonKL7xJHis5KhCN5ri+EpKu31+F6/Y81eGYzSEQyb/ACn7LRs/1XEtRPRP3+U+CQf/AKvhZOxn67Oc2V37psmN41r4LhNlIG53wp0pJIr2KuzG4H6QmqrdLVp3r89sxb2ELQz9Q1IP0oqbMbgc7pXHxV9Ic1+ebQb3arM7j4qnYs+M5bpaOcgZidy4nTEk70myHtvU/hWORd00bzvJgk3+U/ZN0lRvK4c0p6F/W8p8EnPNMVf4WNst6jdMsg+rzmVhPKWDFv8A2X7GregJdNvZcJ307AtK25LwblVLm9JHI0fq5atIgdGK1+i+l0bsv0laCHXKj9l3Ps02YvNnY57S7cO0Lu3QmptnssADrO3dmFFcvllQ9R8kww+D+RKUjz1qJsmmitLXWiGoqPBegNW9QrDZGx/4aUA3r66zaHs0DRdhYP4XObEG9lB/CieXyVmS/wCiY4nG146/s41k0bBZCejbRcsCiIBqd6uhz+F4zbflnspJeEVN3MntKazmB6F+/wAp8EqHP4VCokRiKlDn8KgDU70A0X4SpQ5/CpwNO1ANRGhz+FKHP4QEGIpIAGp3q6HP4QCRGIqXxmqDhUoBovwlS+M1TnAhANRG+M1L4zQEGIpIBwqVd8ZoCpu5k9pTWczh0L9/lKV8ZoBIjEVL4zVBwqUA1nOy/C9uYISvjNU5wLSKoDoTarsy/ucVotXRVuguqvHetVgOjNOywUIp+V/SnWKwttmi7Qztq1eQdq+zwQ2ue1Nj3794CnPE58prpN+EQXmePjrvBeTomOtSk51OxYP6SG2zRuYWtDqCoWkrwRuKndVysXg51KLjLTONaqGKQ18p+yJVWl46KQf6T9lVRXtWx2aM8fQwqbidu+VV4Zqg4An8K7sVNaEpEENWQe1S+CCAqdixm9aeKVajsJWAeK9qd76qzsWsgNHOTDig1wJNUrzQqdi3ZJz/AIJPafsqkluBC0SN/Tyb/Kd38K4Gm0y3WtLv2WvZaoorFbYIWfrDSlV6I2CaiHSQhJjrUA9i+N2U6hHTNqb0sRALvEL1/s81Ji1ZDbgAAHgohyedGuLjH8ibcPgOxqbXg+k1Z0ENEQXLtN1F+64UaVA4DxVOcCFAZzc5dmdEhFQWkNRG+M1L4zWMvIMRSQDhUq74zQFTdzJ7Sms5nDoX7/KUr4zQCRGIqXxmqDhUoBovwlS+M1TnAhANRG+M1L4zQEGIpIBwqVd8ZoBIjEUkRiKASL8JSRfhKASiiiAIxFJEYikgBN3MntKaE3cye0poCIjEUkRiKASL8JSRfhKAqSMSsLT2FfC6/wCptnt+i33W1ea+C+9Wc8DLQy68Xhks9NsqpKSMNtUbYuLPBGv+zq1WC1WiSOGlTVdXOsVosxPTNpRf0M171Ksuk7M4RwC8QvMe0LZPao+lMLC3t8FP8HkY3RTfhnNuU4mVcnKC2dCWxoMMlPSVRFF+pp7V+fRDJGy17COz6L86t0qU129lsijUoeGCm5EAglbBtfFUGm8e1Z+xTsZ0J7ErtG9q0pVF9A1UcinbYqHwS8Fn0lFfSKztotabLr1jvQklpuCLn1LqHenDoua1ysDSesclhnb/AEZK4OTC2zzWlrmsFatK7J2fag2y3aQa6WHqGm9c/UfZbbLdIyZzSWBpruXrDUjUOzWCxQl0AvjtKjefnxpjpPbJRxvFSul2l4Rwtn2oMGi2QuDKOoCdy7WhgbE43UbPY4oI2hjQKBbDEVAL75XS7M6TRRGiPWIkX4Ski/CVrGyJRRRAEYikiMRSQAm7mT2lNCbuZPaU0BERiKSIxFAJF+EpIvwlAJRRRAEYikiMRSQApJ6m8PNUBJePWbw81oiMRQFUk9TeHmqcJLp6zeHmtEX4SgKpJ6m8PNSknqbw801EBmBJePWbw81dJPU3h5qxiKSAxmD+ifVzaXT5eadJPU3h5qTdzJ7SmgBST1N4eaoCS8es3h5rREYigKpJ6m8PNU4SXT1m8PNaIvwlAVST1N4ealJPU3h5pqIDExueSCWH92c185rHq3/cQ6jIjX/8fNfTjEVfastdkq5domOcFNaZ5H2qbHpra2eVrQAAT1Wkf9rz/rDqrPoe1mMkDt7Wn8r+jendBi32WdtK3mH7LpnXbYky3GS0dE0lTfjuWi10uZCeR4btudS8njF0Ekfa9o/2n8rINlvHrs4T+V3JrPszOjpH3YTuyC69tWr8sMjx0Ttx9JUurm7VuBCrcK2p6kj5wtl9beE/lF4kANXt/hvNftHQ8w/+p/CVqzQEsg3wv4VmcJmuqZnztyVxxt4ea5ENgllOJtPo0/lfaaK1LfaZgDC7fm1dnaqbIBbXtvQjfmFq22xpW7DeqwbrXqKOn9B6k2jST91N59J/K7g1K2I2m1vikIrQgnqn8ruHVjYvHYSCI2g9q7T0Bq6NEMAAAoFFc3mIRT+B+SX4HCa07kfN6nal/wBm0Y5j446hvjHv7P3X3cEDoowAWD9mc05Bdgk9p+y1UJttlbJykTSuqNUVGIKSepvDzVASXj1m8PNaIjEVhMxVJPU3h5qnCS6es3h5rRF+EoCqSepvDzUpJ6m8PNNRAZgSXj1m8PNXST1N4easYikgMZg/on1c2l0+XmnST1N4eak3cye0poAUk9TeHmqAkvHrN4ea0RGIoCqSepvDzVOEl09ZvDzWiL8JQFUk9TeHmpST1N4eaaiAzAkvHrN4eauknqbw81YxFJAG+M1QcKlNEYigJfGapzgQmi/CUBC8KB4SUQADhUq74zUGIpIDOZw6F+/ylK+M1U3cye0poA3xmqDhUpojEUBL4zVOcCE0X4SgJfGal8ZpKIABwqVd8ZqDEUkBlOQ6GQV8pWFqsUdqiLCdxXJm7mT2lNVTa8oo0n7Pi9JbO7FpAkvLd+YXzto2J6Me5x6m/wAaLtWlUQ0FzlvwzsiC0pGrPFqn7idRf/B2jK9jP+E2bEtGtHk4V210TcgqdG0DsWX/ANLJ/wC2YvsaP+TrqybItHWchwLN30X0ejtTrLYKXCBTIL6W6Fa17My+z8pGaGNVD8YnHhhZCTRbXgPFQYiktNvZspaM5nDoX7/KUr4zVTdzJ7SmqFQ3xmqDhUpojEUBL4zVOcCE0X4SgJfGal8ZpKIABwqVd8ZqDEUkBnM4dC/f5SlfGaqbuZPaU0Ab4zVBwqU0RiKAl8ZqnOBCaL8JQEvjNS+M0lEAA4VKu+M1BiKSAiIxFShz+FQBqd6AaL8JUoc/hU4GnagGojQ5/ClDn8ICDEUkADU71dDn8ICpu5k9pTWcwPQv3+U+CVDn8IBIjEVKHP4VAGp3oBovwlShz+FTgadqAaiNDn8KUOfwgIMRSQANTvV0OfwgKm7mT2lNZzA9C/f5T4JUOfwgEiMRUoc/hUAanegGi/CVKHP4VOBp2oBqI0OfwpQ5/CAgxFJAA1O9XQ5/CAqbuZPaU1nMD0L9/lPglQ5/CASIxFShz+FQBqd6AaL8JUoc/hU4GnagGojQ5/ClDn8ICDEUkADU71dDn8ICpu5k9pTWcwPQv3+U+CVDn8IBIjEVKHP4VAGp3oBovwlShz+FTgadqAaiNDn8KUOfwgIMRSQANTvV0OfwgEiMRUvjNUHCpQDRfhKl8ZqnOBCAaiN8ZqXxmgIMRSQDhUq74zQFTdzJ7Sms5nDoX7/KUr4zQCRGIqXxmqDhUoBovwlS+M1TnAhANRG+M1L4zQEGIpIBwqVd8ZoCpu5k9pTWczh0L9/lKV8ZoBIjEVL4zVBwqUA0X4SpfGapzgQgGojfGal8ZoCDEUkA4VKu+M0BU3cye0prOZw6F+/ylK+M0AkRiKl8Zqg4VKAaL8JUvjNU5wIQDURvjNS+M0BBiKSAcKlXfGaAqbuZPaU1nM4dC/f5SlfGaASIxFS+M1QcKlANF+EqXxmqc4EIBqI3xmpfGaAgxFJAOFSrvjNAJEYikiMRQCRfhKSL8JQCUUUQBGIpIjEUkAJu5k9pTQm7mT2lNAREYikiMRQCRfhKSL8JQCUUUQBGIpIjEUkAJu5k9pTQm7mT2lNAREYikiMRQCRfhKSL8JQCUUUQBGIq6ontKiAk3cye0prObuX+0/ZaICIjEUkRiKASL8JSRfhKASiiiAIxFJEYikgBN3MntKaE3cye0poCIjEUkRiKASL8JSRfhKASiiiAIxFJEYikgP/Z;imageBorder=#B3B3B3;" vertex="1" parent="1">
          <mxGeometry x="582.07" y="634.92" width="54.97" height="50.18" as="geometry" />
        </mxCell>
        <mxCell id="tAkwu-i30kwF6sE4yZoW-102" style="rounded=0;orthogonalLoop=1;jettySize=auto;html=1;entryX=0;entryY=0.5;entryDx=0;entryDy=0;strokeColor=#B3B3B3;endArrow=classicThin;endFill=1;" edge="1" parent="1" source="tAkwu-i30kwF6sE4yZoW-107" target="tAkwu-i30kwF6sE4yZoW-96">
          <mxGeometry relative="1" as="geometry" />
        </mxCell>
        <mxCell id="tAkwu-i30kwF6sE4yZoW-103" style="rounded=0;orthogonalLoop=1;jettySize=auto;html=1;entryX=0;entryY=0.5;entryDx=0;entryDy=0;strokeColor=#B3B3B3;endArrow=classicThin;endFill=1;" edge="1" parent="1" source="tAkwu-i30kwF6sE4yZoW-107" target="tAkwu-i30kwF6sE4yZoW-97">
          <mxGeometry relative="1" as="geometry" />
        </mxCell>
        <mxCell id="tAkwu-i30kwF6sE4yZoW-104" style="rounded=0;orthogonalLoop=1;jettySize=auto;html=1;entryX=0;entryY=0.5;entryDx=0;entryDy=0;strokeColor=#B3B3B3;endArrow=classicThin;endFill=1;" edge="1" parent="1" source="tAkwu-i30kwF6sE4yZoW-107" target="tAkwu-i30kwF6sE4yZoW-98">
          <mxGeometry relative="1" as="geometry" />
        </mxCell>
        <mxCell id="tAkwu-i30kwF6sE4yZoW-105" style="rounded=0;orthogonalLoop=1;jettySize=auto;html=1;entryX=0;entryY=0.5;entryDx=0;entryDy=0;strokeColor=#B3B3B3;endArrow=classicThin;endFill=1;" edge="1" parent="1" source="tAkwu-i30kwF6sE4yZoW-107" target="tAkwu-i30kwF6sE4yZoW-99">
          <mxGeometry relative="1" as="geometry" />
        </mxCell>
        <mxCell id="tAkwu-i30kwF6sE4yZoW-106" style="rounded=0;orthogonalLoop=1;jettySize=auto;html=1;endArrow=classicThin;endFill=1;strokeColor=#B3B3B3;entryX=0;entryY=0;entryDx=0;entryDy=0;" edge="1" parent="1" source="tAkwu-i30kwF6sE4yZoW-107" target="tAkwu-i30kwF6sE4yZoW-112">
          <mxGeometry relative="1" as="geometry">
            <mxPoint x="736.04" y="727" as="targetPoint" />
          </mxGeometry>
        </mxCell>
        <mxCell id="tAkwu-i30kwF6sE4yZoW-107" value="" style="shape=trapezoid;perimeter=trapezoidPerimeter;whiteSpace=wrap;html=1;fixedSize=1;rotation=90;size=15;strokeColor=#B3B3B3;fillColor=#FFFFFF;" vertex="1" parent="1">
          <mxGeometry x="647.04" y="632.13" width="76.57" height="55.75" as="geometry" />
        </mxCell>
        <mxCell id="tAkwu-i30kwF6sE4yZoW-108" value="&lt;font size=&quot;1&quot;&gt;&lt;span style=&quot;font-weight: normal; font-size: 15px;&quot;&gt;Encoder&lt;/span&gt;&lt;/font&gt;" style="text;html=1;strokeColor=none;fillColor=none;align=center;verticalAlign=middle;whiteSpace=wrap;rounded=0;fontColor=#182E3E;fontFamily=Times New Roman;fontStyle=1" vertex="1" parent="1">
          <mxGeometry x="665.3299999999999" y="650.01" width="40" height="20" as="geometry" />
        </mxCell>
        <mxCell id="tAkwu-i30kwF6sE4yZoW-109" value="&lt;font style=&quot;&quot; face=&quot;Times New Roman&quot;&gt;&lt;font style=&quot;font-size: 18px;&quot;&gt;Disentangled&lt;/font&gt;&lt;br&gt;&lt;/font&gt;" style="text;html=1;strokeColor=none;fillColor=none;align=center;verticalAlign=middle;rounded=0;shadow=0;sketch=0;whiteSpace=wrap;labelBorderColor=none;labelBackgroundColor=none;" vertex="1" parent="1">
          <mxGeometry x="572.04" y="700" width="150" height="30" as="geometry" />
        </mxCell>
        <mxCell id="tAkwu-i30kwF6sE4yZoW-110" style="rounded=0;orthogonalLoop=1;jettySize=auto;html=1;entryX=0;entryY=0.75;entryDx=0;entryDy=0;endArrow=classicThin;endFill=1;strokeColor=#B3B3B3;" edge="1" parent="1" source="tAkwu-i30kwF6sE4yZoW-111" target="tAkwu-i30kwF6sE4yZoW-101">
          <mxGeometry relative="1" as="geometry" />
        </mxCell>
        <mxCell id="tAkwu-i30kwF6sE4yZoW-111" value="" style="ellipse;whiteSpace=wrap;html=1;aspect=fixed;fillColor=#dae8fc;strokeColor=#6c8ebf;" vertex="1" parent="1">
          <mxGeometry x="542.04" y="730" width="20" height="20" as="geometry" />
        </mxCell>
        <mxCell id="tAkwu-i30kwF6sE4yZoW-112" value="" style="ellipse;whiteSpace=wrap;html=1;aspect=fixed;fillColor=#dae8fc;strokeColor=#6c8ebf;" vertex="1" parent="1">
          <mxGeometry x="735" y="730" width="20" height="20" as="geometry" />
        </mxCell>
        <mxCell id="tAkwu-i30kwF6sE4yZoW-113" value="&lt;font style=&quot;&quot; face=&quot;Times New Roman&quot;&gt;&lt;font style=&quot;font-size: 18px;&quot;&gt;&amp;amp; Complete/Compact&lt;/font&gt;&lt;br&gt;&lt;/font&gt;" style="text;html=1;strokeColor=none;fillColor=none;align=center;verticalAlign=middle;rounded=0;shadow=0;sketch=0;whiteSpace=wrap;labelBorderColor=none;labelBackgroundColor=none;" vertex="1" parent="1">
          <mxGeometry x="566.48" y="730" width="163.04" height="14" as="geometry" />
        </mxCell>
      </root>
    </mxGraphModel>
  </diagram>
</mxfile>
